<?xml version="1.0" encoding="UTF-8" standalone="no"?>
<svg
   xmlns:dc="http://purl.org/dc/elements/1.1/"
   xmlns:cc="http://creativecommons.org/ns#"
   xmlns:rdf="http://www.w3.org/1999/02/22-rdf-syntax-ns#"
   xmlns:svg="http://www.w3.org/2000/svg"
   xmlns="http://www.w3.org/2000/svg"
   viewBox="0 0 744 468"
   height="468"
   width="744"
   id="svg10"
   version="1.1">
  <metadata
     id="metadata16">
    <rdf:RDF>
      <cc:Work
         rdf:about="">
        <dc:format>image/svg+xml</dc:format>
        <dc:type
           rdf:resource="http://purl.org/dc/dcmitype/StillImage" />
        <dc:title></dc:title>
      </cc:Work>
    </rdf:RDF>
  </metadata>
  <defs
     id="defs14" />
  <g
     transform="translate(-27.594336,-9.9339623)"
     id="g20">
    <path
       id="path26"
       d="M 20,434.53863 C 20,432.90168 29.625987,418.39229 34.289405,413 35.954205,411.075 60.870144,385.56997 89.658157,356.32217 118.44617,327.07436 142,302.74718 142,302.26177 142,301.04798 116.42984,278 115.08322,278 114.48745,278 114,278.37268 114,278.82818 114,279.81228 91.241254,318.82196 81.520341,334.5 61.152616,367.34939 52.633208,377.30033 38,385.33314 31.611042,388.84032 21.795733,392 17.289901,392 13.985517,392 14.450353,389.51863 18.25,386.87484 27.706159,380.29527 45.791123,360.30759 55.686202,345.5 69.201684,325.27462 103,267.52417 103,264.65594 c 0,-0.7559 -1.73037,-3.35022 -3.845269,-5.76515 -5.217393,-5.95757 -6.458501,-8.40906 -4.883718,-9.6465 0.675943,-0.53115 5.437484,-1.76816 10.581207,-2.74892 8.53377,-1.62714 9.52085,-2.05502 11.27919,-4.88928 1.05983,-1.70835 7.96209,-15.25609 15.33835,-30.10609 29.65271,-59.69729 50.22382,-111.972757 67.0941,-170.5 3.56705,-12.375 6.93826,-23.564042 7.49159,-24.864538 0.93886,-2.206638 1.43787,-2.337041 7.47251,-1.952784 3.55656,0.226465 7.03022,0.977092 7.71926,1.668061 1.97722,1.982789 1.14881,50.315001 -1.74254,101.664921 -1.37758,24.46547 -2.48863,51.79555 -2.46901,60.73351 0.0345,15.71408 1.27107,35.3909 2.28801,36.40784 0.27277,0.27277 8.44299,-1.34558 18.15606,-3.59633 9.71307,-2.25075 18.07866,-3.8336 18.5902,-3.51746 0.51153,0.31615 0.93006,1.1653 0.93006,1.88701 0,0.72171 -7.65,8.78768 -17,17.92439 -19.18657,18.74888 -18.17237,16.64643 -14.98505,31.06409 9.89845,44.77507 33.81756,98.54009 63.78008,143.36389 3.41274,5.10543 6.20497,9.72785 6.20497,10.27203 0,1.40175 -9.00977,6.94537 -11.28797,6.94537 -1.13365,0 -7.79192,-6.09546 -16.55422,-15.15493 -19.05128,-19.6974 -32.78978,-31.24251 -80.15781,-67.3604 -10.725,-8.17776 -21.975,-16.80697 -25,-19.17603 -3.025,-2.36906 -5.98205,-4.30767 -6.57121,-4.30801 -0.58917,-3.5e-4 -12.96417,12.03386 -27.5,26.74268 C 53.206026,415.35534 46.51224,421.63548 29.732387,431.87159 22.58647,436.23077 20,436.93956 20,434.53863 Z m 336.23113,-77.37462 c -0.97898,-0.62137 -1.20745,-6.15806 -1,-24.23469 L 355.5,309.5 373.8698,309.22698 C 393.32116,308.93788 395,309.27738 395,313.5 c 0,3.78293 -2.04099,4.42215 -15.06357,4.71772 L 367.5,318.5 v 4.5 4.5 l 11.28954,0.5 c 11.53098,0.51069 13.17983,1.13622 13.17983,5 0,3.86217 -1.65339,4.48932 -13.18193,5 L 367.5,338.5 v 4.5 4.5 l 12.28789,0.5 c 12.92466,0.52591 14.16288,1.00997 14.1968,5.55 0.0305,4.08347 -1.57896,4.45072 -19.43469,4.43469 -9.3775,-0.008 -17.62099,-0.37773 -18.31887,-0.82068 z m 60.04169,0.0258 c -0.88251,-0.56063 -1.30381,-6.10344 -1.5,-19.73468 L 414.5,318.5 407.01944,318 c -7.02754,-0.46972 -7.53758,-0.66292 -8.42203,-3.19025 -0.67444,-1.92721 -0.56981,-3.13808 0.36887,-4.26912 1.13311,-1.36531 4.23352,-1.54246 22.92203,-1.30975 L 443.5,309.5 l 0.30836,3.7163 c 0.35541,4.28342 -0.28638,4.59636 -10.30836,5.0263 l -6,0.2574 -0.27282,18.95509 c -0.19619,13.63124 -0.61749,19.17405 -1.5,19.73468 -0.67495,0.42878 -2.80218,0.7796 -4.72718,0.7796 -1.925,0 -4.05223,-0.35082 -4.72718,-0.7796 z m 126.05963,-0.98599 c -10.68265,-3.80504 -16.10272,-10.57873 -17.0789,-21.34425 -0.95928,-10.57907 5.88844,-20.13766 17.23815,-24.06237 6.51706,-2.2536 21.22203,-2.36831 28.44964,-0.22194 7.61194,2.2605 14.42263,9.23182 15.94243,16.31844 2.67729,12.48377 -2.66186,22.97064 -14.38377,28.2518 -6.99199,3.15016 -22.74334,3.70274 -30.16755,1.05832 z M 567.96412,346.75 c 10.37552,-5.3203 10.91239,-19.83273 0.97692,-26.40771 -3.67372,-2.43116 -5.19616,-2.79363 -11.82872,-2.81629 -8.91764,-0.0305 -14.2926,2.20617 -17.83797,7.42274 -4.35361,6.40578 -4.20795,12.59986 0.42578,18.10673 3.76313,4.47222 7.60266,5.86003 16.33798,5.90539 5.9041,0.0307 8.48926,-0.44858 11.92601,-2.21086 z m 68.13923,9.87453 c -0.8001,-0.96406 -1.06105,-8.21726 -0.87244,-24.25 L 635.5,309.5 l 4.96687,-0.31365 c 6.1873,-0.39071 7.53313,1.1287 7.53313,8.50478 0,2.91988 0.2726,5.30887 0.60577,5.30887 0.33318,0 4.00141,-3.17115 8.15164,-7.047 7.50187,-7.00592 7.57552,-7.04527 12.63486,-6.75 3.56398,0.208 5.17431,0.74673 5.37369,1.79776 0.16266,0.85748 -4.01259,5.2847 -9.74063,10.32848 C 659.5114,326.18447 655,330.74353 655,331.46048 c 0,0.71695 5.2875,5.93148 11.75,11.58786 6.4625,5.65637 11.75,10.99697 11.75,11.86799 0,1.22126 -1.28195,1.65129 -5.60199,1.87916 l -5.60198,0.29549 -8.80784,-8.04549 C 653.64388,344.62047 649.30227,341 648.84017,341 648.37808,341 648,343.67071 648,346.9349 c 0,3.2642 -0.43886,7.0892 -0.97525,8.5 -0.84303,2.21733 -1.5721,2.5651 -5.37755,2.5651 -2.51607,0 -4.89142,-0.58934 -5.54385,-1.37547 z m 52.27241,0.28928 c -4.54651,-1.31818 -7.34764,-5.79394 -5.48343,-8.76167 0.70303,-1.11919 2.047,-1.05613 7.92164,0.3717 7.55281,1.83572 13.1311,1.4522 15.20384,-1.0453 1.96469,-2.3673 -1.10709,-5.87924 -10.36781,-11.85341 -12.25862,-7.90814 -15.38168,-12.77054 -12.32262,-19.18546 2.36844,-4.96667 6.64235,-6.74504 17.41651,-7.24702 10.91749,-0.50865 14.6042,0.9643 14.06649,5.61997 -0.30947,2.67951 -0.33188,2.6864 -7.65042,2.35157 -8.56073,-0.39165 -11.70579,0.20988 -12.54607,2.39962 -1.06564,2.777 1.13299,5.09767 10.32387,10.89692 C 714.78368,336.6733 718,340.60135 718,346.41349 c 0,4.25482 -3.01183,7.85785 -8.47745,10.14154 -3.83369,1.60181 -16.13935,1.81059 -21.14679,0.35878 z M 300.2,355.8 c -0.85952,-0.85952 -1.2,-7.35057 -1.2,-22.87756 0,-24.40158 -0.0442,-24.25471 7.14199,-23.73355 4.14248,0.30043 4.7889,0.8549 18.8239,16.14631 L 339.5,341.17039 340,326.04682 c 0.53947,-16.31741 0.78734,-17.00069 6.17857,-17.03151 5.5155,-0.0315 5.82143,1.20986 5.82143,23.62186 0,12.2149 -0.4182,21.27573 -1.03518,22.42857 -1.13473,2.12025 -7.61611,2.72644 -10.81968,1.01194 -0.94786,-0.50728 -7.73116,-7.48228 -15.074,-15.5 C 317.7283,332.55995 311.3334,326 310.86026,326 310.38712,326 310,332.435 310,340.3 c 0,15.62727 -0.35329,16.7 -5.5,16.7 -1.705,0 -3.64,-0.54 -4.3,-1.2 z m 167.53469,-0.05 c -0.90617,-0.6875 -3.17892,-4.85 -5.05057,-9.25 -1.87165,-4.4 -5.94125,-13.73138 -9.04356,-20.73641 C 450.53825,318.75857 448,312.39421 448,311.62058 c 0,-2.40907 6.82616,-3.65221 9.77579,-1.78031 1.07816,0.68422 4.98153,9.28884 12.90656,28.45132 0.86245,2.08538 2.07424,3.62657 2.69287,3.42488 C 474.71113,341.28092 482,329.06121 482,327.25712 c 0,-0.68848 -1.38287,-4.17863 -3.07305,-7.7559 -3.89014,-8.2335 -3.63719,-9.90114 1.5662,-10.32559 3.35928,-0.27401 4.32256,0.10961 6.20583,2.47145 l 2.2293,2.79581 2.91134,-2.78923 c 2.34865,-2.25016 3.65856,-2.72782 6.77754,-2.47145 5.23118,0.42999 5.30108,2.10192 0.42357,10.13047 -2.2224,3.65815 -4.04073,7.41092 -4.04073,8.33949 0,2.3895 6.12292,15.38989 6.9946,14.85117 0.397,-0.24536 4.21725,-7.32149 8.48944,-15.72473 4.27219,-8.40323 8.2161,-15.84111 8.76424,-16.52861 1.38114,-1.7323 8.23732,-1.57474 9.72981,0.2236 0.99752,1.20194 0.30641,3.18373 -3.74888,10.75 -2.73453,5.10202 -7.57141,14.4514 -10.74862,20.7764 -7.11142,14.15699 -7.81081,15 -12.44445,15 -4.99073,0 -6.38464,-1.34569 -10.09938,-9.75 -1.76249,-3.9875 -3.52277,-7.25 -3.91172,-7.25 -0.38895,0 -1.96738,2.3625 -3.50762,5.25 -5.15316,9.66065 -7.17622,11.75 -11.37718,11.75 -2.06689,0 -4.49939,-0.5625 -5.40555,-1.25 z M 592.2,355.8 c -0.85952,-0.85952 -1.2,-7.35057 -1.2,-22.87756 0,-17.86246 0.25898,-21.89248 1.47151,-22.8988 1.04593,-0.86804 5.31185,-1.12036 14.75,-0.87244 11.12706,0.29229 13.84557,0.67836 16.77849,2.38282 9.97188,5.79514 8.37642,19.87644 -2.66495,23.52042 -1.83428,0.60536 -3.33505,1.5439 -3.33505,2.08563 0,0.54173 3.17652,4.58978 7.05893,8.99567 3.88241,4.40588 6.88454,8.54025 6.67139,9.18748 -0.21314,0.64723 -2.73542,1.31352 -5.60506,1.48064 -5.85815,0.34117 -6.53452,-0.16959 -16.62526,-12.55464 -2.75,-3.37526 -5.3375,-6.16212 -5.75,-6.19303 -0.4125,-0.0309 -0.75,3.34839 -0.75,7.50955 C 603,355.18683 602.07469,357 597.16482,357 595.09417,357 592.86,356.46 592.2,355.8 Z M 616,327.70573 c 1.93725,-0.98009 2.5,-2.03934 2.5,-4.70573 0,-4.37783 -3.02706,-6.12125 -10,-5.75944 l -5,0.25944 -0.2999,5.75 -0.29991,5.75 5.29991,-0.0147 c 2.91494,-0.008 6.4249,-0.5839 7.7999,-1.27953 z M 299.45924,293.75 c -0.26289,-0.6875 -0.36127,-28.475 -0.21861,-61.75 l 0.25937,-60.5 63,0.013 c 62.82094,0.013 63.01683,0.0194 68.92009,2.25466 17.30677,6.55319 26.06323,17.3613 27.29851,33.6946 1.1261,14.88967 -5.66762,27.50094 -18.49908,34.34003 -11.74607,6.26059 -13.77719,6.47082 -66.96952,6.93143 L 325,249.15154 v 20.35912 c 0,11.19752 -0.43886,21.51342 -0.97525,22.92422 -0.96921,2.54923 -1.04676,2.5651 -12.53138,2.5651 -8.32332,0 -11.68986,-0.34969 -12.03413,-1.25 z m 118.63139,-67.09729 c 10.06427,-2.36916 13.89234,-6.76158 13.90278,-15.95237 0.008,-6.77062 -1.71683,-10.64516 -6.24236,-14.02488 C 418.97979,191.6186 417.70226,191.5 370,191.5 h -44.5 l -0.27256,18.25 -0.27256,18.25 43.77256,-0.0156 c 32.64413,-0.0116 45.19388,-0.35021 49.36319,-1.33167 z M 484.2,293.8 c -1.73313,-1.73313 -1.73313,-119.86687 0,-121.6 0.78239,-0.78239 4.88889,-1.2 11.8,-1.2 6.91111,0 11.01761,0.41761 11.8,1.2 0.86466,0.86466 1.2,7.71111 1.2,24.5 V 220 h 54.5 54.5 v -23.3 c 0,-16.78889 0.33534,-23.63534 1.2,-24.5 0.78239,-0.78239 4.88889,-1.2 11.8,-1.2 6.91111,0 11.01761,0.41761 11.8,1.2 1.73313,1.73313 1.73313,119.86687 0,121.6 -0.78239,0.78239 -4.88889,1.2 -11.8,1.2 -6.91111,0 -11.01761,-0.41761 -11.8,-1.2 -0.87132,-0.87132 -1.2,-8.26667 -1.2,-27 V 241 H 563.5 509 v 25.8 c 0,18.73333 -0.32868,26.12868 -1.2,27 -0.78239,0.78239 -4.88889,1.2 -11.8,1.2 -6.91111,0 -11.01761,-0.41761 -11.8,-1.2 z m 205,0 c -1.73313,-1.73313 -1.73313,-119.86687 0,-121.6 0.78239,-0.78239 4.88889,-1.2 11.8,-1.2 6.91111,0 11.01761,0.41761 11.8,1.2 1.73313,1.73313 1.73313,119.86687 0,121.6 -0.78239,0.78239 -4.88889,1.2 -11.8,1.2 -6.91111,0 -11.01761,-0.41761 -11.8,-1.2 z"
       style="fill:#a09fa1" />
    <path
       id="path24"
       d="M 23.166667,432.02056 C 23.35,431.48187 26.425,426.88518 30,421.80569 34.897433,414.84725 49.751996,399.14582 90.25,358.12082 119.8125,328.17363 144,302.93114 144,302.02641 c 0,-0.90473 -2.5875,-3.86686 -5.75,-6.58251 -3.1625,-2.71565 -9.45864,-8.48478 -13.99141,-12.82029 -6.5532,-6.26802 -8.52336,-7.64876 -9.61779,-6.74046 -0.75701,0.62826 -5.49389,8.28976 -10.5264,17.02556 -25.801526,44.78814 -41.702028,68.89121 -52.570089,79.68935 -8.901892,8.84462 -19.518492,15.05228 -27.595924,16.13569 l -4.367742,0.58584 10.999537,-10.9098 C 43.070864,366.02102 51.572941,355.38711 61.689536,339.5 79.75482,311.13026 105,267.52008 105,264.68266 c 0,-1.02502 -2.025,-4.23396 -4.5,-7.13098 -2.475,-2.89702 -4.5,-5.74939 -4.5,-6.3386 0,-0.94627 2.363036,-1.5787 14.5,-3.8807 1.65,-0.31295 3.77219,-0.9734 4.71598,-1.46767 0.94379,-0.49426 7.07691,-11.57852 13.62916,-24.63169 32.66515,-65.07436 56.21437,-124.585002 73.08357,-184.687656 L 207.55491,16.5 l 3.87722,-0.319587 c 7.6859,-0.633523 8.19769,-0.136788 8.8723,8.611436 0.71473,9.268403 -0.6052,52.794953 -2.83767,93.576031 -1.87015,34.1625 -1.74275,95.75978 0.20208,97.70232 0.89109,0.89006 4.2656,0.42341 14.2012,-1.96381 7.1678,-1.7222 15.19182,-3.40311 17.83116,-3.73536 l 4.7988,-0.60409 -16.75,16.87725 C 223.52044,240.98186 221,243.97503 221,246.53581 c 0,3.537 4.76755,23.50735 9.18261,38.46419 10.36171,35.10223 31.24403,78.36291 56.2356,116.5 l 6.55308,10 -2.53311,2.24286 c -5.65732,5.0091 -5.82808,4.91399 -24.11841,-13.43244 C 249.71555,383.65525 235.8664,371.7806 208.49936,350.73358 164.75809,317.09371 156.56936,311 155.10538,311 c -0.8876,0 -23.41307,22.1021 -50.0566,49.11579 -49.687455,50.37774 -58.772624,58.87741 -72.427085,67.75947 -7.754022,5.0439 -10.112797,6.07804 -9.455028,4.1453 z M 241.59703,349.80171 C 228.25156,321.87898 215.51768,286.83542 210.96408,265.5 c -0.70431,-3.3 -1.6686,-6.43674 -2.14287,-6.97054 C 207.87379,257.46311 166,298.66517 166,300.66375 c 0,1.63865 6.8024,7.21536 34,27.87371 12.925,9.81737 29.07689,22.27326 35.89308,27.67974 6.81619,5.40649 12.55678,9.66628 12.75685,9.4662 0.20008,-0.20008 -2.97373,-7.34684 -7.0529,-15.88169 z M 357,333.52361 V 311 h 18 18 v 2.5 2.5 H 380.57143 C 366.43291,316 365,316.63314 365,322.8803 c 0,6.44303 1.09784,7.04054 13.5,7.34747 10.99407,0.27208 11,0.27358 11,2.77223 0,2.49692 -0.0135,2.50035 -10.94063,2.78577 -6.01735,0.15717 -11.52985,0.77477 -12.25,1.37244 -1.56146,1.29589 -1.73448,8.17895 -0.27419,10.90753 0.92817,1.7343 2.19456,1.93584 12.25,1.94957 11.92032,0.0163 14.12698,0.60327 13.55041,3.60452 -0.33439,1.74062 -1.64057,1.90048 -17.5984,2.15378 L 357,356.04723 Z m 59.98469,4.22639 c -0.008,-10.0375 -0.44121,-18.925 -0.96174,-19.75 -0.64449,-1.02146 -3.27155,-1.65951 -8.23469,-2 -6.45493,-0.44283 -7.28826,-0.72868 -7.28826,-2.5 0,-1.92667 0.75665,-2.0099 20.63536,-2.26994 18.20611,-0.23816 20.7081,-0.0804 21.25324,1.34024 C 443.45848,315.35836 442.07851,316 435.01241,316 424.79959,316 425,315.56822 425,337.57143 V 356 h -4 -4 l -0.0153,-18.25 z m 127.00884,17.31566 c -20.19092,-6.1418 -23.17439,-32.12865 -4.69958,-40.9346 14.91542,-7.10937 36.96166,-3.377 43.22925,7.31861 3.38111,5.76985 4.01146,11.19934 2.07397,17.86406 -3.31879,11.41625 -12.60342,16.75222 -28.88468,16.60032 -5.06687,-0.0473 -10.3404,-0.42905 -11.71896,-0.84839 z m 22.75199,-5.6038 c 4.7503,-1.9848 7.02196,-4.08929 9.36089,-8.67202 4.10257,-8.03827 0.87504,-18.39042 -7.01369,-22.49609 C 565.58731,316.46938 563.07398,316 556.8106,316 c -4.36922,0 -9.32079,0.60416 -11.12294,1.35714 -8.1552,3.40746 -13.11233,12.94437 -10.77802,20.73559 1.5793,5.27123 5.6547,9.66023 10.59036,11.40526 5.38436,1.90367 16.64876,1.88452 21.24552,-0.0361 z m 70.92115,5.87147 C 637.3,354.96667 637,344.81579 637,332.77584 V 310.885 l 4.25,0.3075 4.25,0.3075 0.29381,7.25 c 0.22059,5.44321 0.64619,7.25 1.70778,7.25 0.77769,0 5.02287,-3.375 9.43374,-7.5 6.83929,-6.39603 8.53826,-7.5 11.54222,-7.5 1.93735,0 3.52245,0.38951 3.52245,0.86557 0,0.47606 -4.1625,4.61457 -9.25,9.19668 -5.76882,5.19575 -9.25,9.07902 -9.25,10.31841 0,1.2585 4.03399,5.64277 11,11.95517 6.05,5.48234 11.15,10.34955 11.33333,10.81603 0.18334,0.46648 -1.61666,0.84035 -4,0.83083 -4.04874,-0.0162 -4.92439,-0.57137 -13.33333,-8.4538 -4.95,-4.64006 -9.7875,-8.45727 -10.75,-8.48268 -1.51355,-0.04 -1.75,0.9561 -1.75,7.372 0,4.08002 -0.27314,8.13002 -0.60699,9 -0.6099,1.58938 -6.36987,2.2716 -7.72634,0.91512 z M 688,355.11077 c -1.79362,-0.49494 -2.59316,-1.49458 -2.8297,-3.53789 -0.25225,-2.17904 0.0176,-2.71476 1.14873,-2.2807 0.81313,0.31203 4.1791,1.09865 7.47993,1.74805 6.98911,1.37502 12.50816,0.12294 14.3116,-3.24681 1.82888,-3.4173 -0.47038,-6.42087 -9.3446,-12.20705 -13.44423,-8.76593 -16.42831,-12.6425 -13.93841,-18.10722 1.99708,-4.38311 5.71803,-5.86684 15.82125,-6.30872 9.46794,-0.41409 12.3512,0.37872 12.3512,3.39622 0,1.00602 -2.00272,1.27537 -8.38386,1.12756 -7.01241,-0.16244 -8.73002,0.11741 -10.5,1.71078 -1.16388,1.04774 -2.11614,2.57992 -2.11614,3.40483 0,2.15611 6.91025,8.41991 13.35974,12.10993 3.04457,1.74193 6.68414,4.53212 8.08793,6.20042 4.61867,5.48898 2.74847,12.64645 -4.04624,15.48546 -3.46441,1.44752 -16.84209,1.76328 -21.40143,0.50514 z M 301,333.06336 V 311 h 3.41821 c 1.88002,0 4.0956,0.25994 4.92352,0.57764 0.82792,0.3177 7.89133,7.7427 15.69646,16.5 C 332.84333,336.83494 339.85275,344 340.61468,344 341.7332,344 342,341.1269 342,329.08179 c 0,-8.20502 0.27314,-15.63002 0.60699,-16.5 0.35866,-0.93466 1.78276,-1.58179 3.48095,-1.58179 2.14995,0 3.01321,0.56682 3.42672,2.25 0.30402,1.2375 0.42509,11.025 0.26905,21.75 l -0.28371,19.5 -4.15864,0.30303 -4.15865,0.30304 -14.84135,-16.04975 c -8.16275,-8.82735 -15.61743,-16.05122 -16.56597,-16.05303 -1.54831,-0.003 -1.75275,1.60668 -2,15.74671 L 307.5,354.5 l -3.25,0.31336 -3.25,0.31336 z M 468.21999,353.75 c -0.5637,-0.6875 -2.83317,-5.525 -5.04327,-10.75 -2.2101,-5.225 -6.08874,-14.19275 -8.6192,-19.92834 -2.72581,-6.17837 -4.23412,-10.79506 -3.701,-11.32818 0.49491,-0.49491 2.1371,-0.75216 3.64931,-0.57166 2.52357,0.30122 3.294,1.6017 9.37694,15.82818 7.51123,17.56688 7.74149,18 9.56962,18 1.49466,0 10.54971,-15.35606 10.54385,-17.88084 C 483.99417,326.22862 482.64586,322.8 481,319.5 c -3.76317,-7.54527 -3.75795,-8.5 0.0465,-8.5 2.33756,0 3.44293,0.69665 4.75,2.99368 2.16674,3.80777 4.29763,3.80983 6.54442,0.006 1.42328,-2.40943 2.45001,-3 5.21561,-3 1.8939,0 3.44346,0.31132 3.44346,0.69183 0,0.38051 -1.8,3.72168 -4,7.42483 -2.2,3.70315 -4,7.60345 -4,8.66734 0,3.61478 6.93741,17.21611 8.78028,17.21442 1.21893,-0.001 4.19494,-4.87876 10.21972,-16.75 8.17957,-16.11704 8.62252,-16.76023 11.75,-17.06178 4.14211,-0.39937 4.21919,1.15253 0.40316,8.11741 -1.56575,2.85777 -6.37654,12.08013 -10.69062,20.49413 l -7.84379,15.29819 -4.04155,-0.29819 c -3.88135,-0.28636 -4.15115,-0.536 -6.80689,-6.29818 -4.47503,-9.70952 -5.27103,-11 -6.78509,-11 -0.79094,0 -3.62178,3.9375 -6.29074,8.75 -4.77646,8.6126 -4.91231,8.75 -8.65113,8.75 -2.08915,0 -4.25967,-0.5625 -4.82336,-1.25 z m 125.25172,0.0369 c -0.283,-0.73748 -0.3924,-10.55372 -0.24313,-21.81387 L 593.5,311.5 l 10,-0.30744 c 5.5,-0.16909 11.91036,-0.0293 14.24525,0.31056 8.23183,1.19834 13.12487,8.56779 10.26804,15.4648 -1.37907,3.32936 -3.8459,5.18229 -9.26329,6.95801 -2.0625,0.67604 -3.75,1.76269 -3.75,2.41476 0,0.65207 3.15,4.77376 7,9.15931 3.85,4.38555 7,8.31714 7,8.73686 0,0.41973 -1.77893,0.76314 -3.95319,0.76314 -4.13565,0 -4.76468,-0.5784 -18.20708,-16.74148 -4.63057,-5.56778 -5.2842,-4.86919 -5.83973,6.24148 l -0.5,10 -3.25688,0.31387 c -2.04186,0.19678 -3.44883,-0.18635 -3.77141,-1.027 z m 22.40018,-23.89205 c 5.41895,-1.88906 6.9398,-8.12906 2.89883,-11.8938 -1.9178,-1.78671 -3.28009,-2.03666 -9.75,-1.78896 L 601.5,316.5 l -0.30402,5.88803 c -0.16721,3.23841 -0.0688,6.50091 0.21861,7.25 0.64838,1.68964 9.87681,1.85355 14.4573,0.25679 z M 301,233.03383 V 173 h 60.27164 c 55.33992,0 60.81179,0.14978 66.87284,1.83046 12.3242,3.4174 21.03653,10.24264 25.74615,20.16954 2.27512,4.79546 2.60807,6.78097 2.59923,15.5 -0.01,9.46547 -0.19207,10.33652 -3.4136,16.29554 -4.84415,8.96047 -11.90242,14.05685 -24.61943,17.77634 -5.16762,1.51143 -12.51499,1.82081 -55.45683,2.33519 L 323.5,247.5 323,270 l -0.5,22.5 -10.75,0.28383 -10.75,0.28383 z m 115.67408,-4.13753 c 10.84985,-1.88942 16.35105,-7.15423 17.11618,-16.3807 0.58648,-7.07216 -1.80309,-13.67223 -6.12954,-16.93 -7.09711,-5.34404 -8.9381,-5.52349 -57.61597,-5.61602 -24.77639,-0.0471 -45.49725,0.19205 -46.04636,0.53142 -1.5672,0.96858 -1.32599,38.20014 0.25161,38.83672 2.6143,1.05489 86.12189,0.65606 92.42408,-0.44142 z m 68.79853,62.88888 C 485.20221,291.07833 485.09776,264.175 485.24049,232 L 485.5,173.5 h 10.5 10.5 l 0.5,24 0.5,24 h 56 56 l 0.5,-24 0.5,-24 H 631 641.5 V 233 292.5 H 631 620.5 L 619.95818,266 c -0.298,-14.575 -0.6355,-26.61628 -0.75,-26.7584 -0.1145,-0.14211 -25.29568,-0.14211 -55.95818,0 L 507.5,239.5 507,266 l -0.5,26.5 -10.26788,0.28518 c -7.65459,0.2126 -10.39301,-0.0419 -10.75951,-1 z m 205,0 C 690.20221,291.07833 690.09776,264.175 690.24049,232 L 690.5,173.5 h 10.5 10.5 v 59.5 59.5 l -10.26788,0.28518 c -7.65459,0.2126 -10.39301,-0.0419 -10.75951,-1 z"
       style="fill:#8cb23c" />
    <path
       id="path22"
       d="M 24,431.79115 C 24,430.14286 27.697677,424.61247 34.892431,415.5 37.932201,411.65 60.253512,388.475 84.495344,364 138.73714,309.23648 144,303.74032 144,301.8575 c 0,-0.82439 -4.6125,-5.59637 -10.25,-10.60441 -5.6375,-5.00804 -11.80078,-10.71373 -13.69617,-12.67931 C 118.15844,276.6082 116.08283,275 115.44137,275 c -0.64146,0 -4.45778,5.7375 -8.48072,12.75 C 90.653,316.17632 72.029018,346.52177 63.232221,359 c -7.445154,10.56093 -18.656147,20.967 -27.282373,25.32358 -4.152584,2.09722 -9.552584,4.057 -12,4.35506 L 19.5,389.22059 27.697441,381.57798 C 47.030673,363.55331 57.905616,347.83754 95.219115,284 102.35756,271.78725 105,266.4914 105,264.39765 c 0,-0.92511 -2.025,-4.05231 -4.5,-6.94933 -2.475,-2.89702 -4.5,-5.71644 -4.5,-6.26538 0,-0.54894 4.24913,-1.76315 9.44251,-2.69824 5.69654,-1.02569 10.02423,-2.35167 10.90888,-3.34243 1.73932,-1.94797 24.19057,-46.71127 31.66047,-63.12467 C 171.79385,129.76217 188.60012,84.37911 202.45548,35 l 5.19095,-18.5 4.92678,-0.259953 c 2.70974,-0.142975 5.5673,0.156796 6.35015,0.666156 2.08901,1.359225 1.6388,39.718178 -1.02443,87.282457 -2.43527,43.49288 -3.00676,105.25165 -1.0195,110.17228 1.36105,3.37009 0.45274,3.43074 20.84021,-1.39157 7.8208,-1.84988 14.54951,-3.03356 14.95268,-2.63039 0.40316,0.40317 -6.55817,8.0343 -15.46964,16.95807 -18.30264,18.32788 -17.43271,16.45692 -14.27581,30.70295 10.23229,46.17485 31.95879,95.75651 62.00477,141.5 3.6126,5.5 6.92005,10.5479 7.34989,11.21755 0.80796,1.25873 -6.01204,6.28799 -8.51166,6.27673 -0.69843,-0.003 -6.19724,-5.23883 -12.21957,-11.63486 C 254.4104,387.15599 232.22586,368.30187 194.05732,339.5 186.76867,334 175.48333,325.3375 168.9788,320.25 162.47426,315.1625 156.29281,311 155.24223,311 c -1.19737,0 -19.74121,18.10536 -49.69559,48.52052 C 57.911699,407.88821 45.53158,419.48859 33.07292,427.42966 23.672908,433.42116 24,433.26392 24,431.79115 Z m 225,-66.66751 c 0,-0.48199 -3.7829,-8.69449 -8.40645,-18.25 -12.67449,-26.19442 -22.75721,-53.70959 -28.8772,-78.80423 -1.26494,-5.18683 -2.82994,-9.60727 -3.47778,-9.82322 -1.52292,-0.50764 -42.23887,40.65775 -42.23763,42.70388 5.2e-4,0.85246 10.23802,9.39807 22.75,18.99025 34.45401,26.41379 47.20368,36.3265 53.24906,41.40045 5.50134,4.61734 7,5.42723 7,3.78287 z M 179.75735,265.74279 C 201.01947,244.4684 205,240.03291 205,237.61498 c 0,-2.75904 -0.14573,-2.84686 -3.75,-2.25986 -2.0625,0.3359 -11.85,3.05344 -21.75,6.03897 -9.9,2.98554 -25.65,7.53334 -35,10.10624 -13.14202,3.61636 -17.51062,5.23776 -19.25,7.14459 -1.2375,1.35664 -2.25,2.96087 -2.25,3.56498 0,1.83613 28.8198,28.7901 30.78303,28.7901 0.40242,0 12.09087,-11.36575 25.97432,-25.25721 z M 153.0615,235.56143 c 38.73494,-11.13631 49.24249,-14.43237 50.05006,-15.69991 0.47708,-0.74884 0.58226,-2.03652 0.23371,-2.86152 -1.58925,-3.76171 -1.50993,-63.09472 0.11832,-88.5 2.52202,-39.3508 3.03064,-54.923488 1.76838,-54.143368 -0.59029,0.364822 -2.74526,5.721325 -4.78881,11.90334 C 193.41722,107.51433 179.90433,142.06757 167.69459,170 c -6.28203,14.37149 -25.25877,54.07554 -29.6753,62.08808 -3.27556,5.94258 -3.70064,7.91192 -1.70779,7.91192 0.72133,0 8.25883,-1.99736 16.75,-4.43857 z m 204.60517,119.7719 C 357.3,354.96667 357,344.83128 357,332.81026 v -21.85641 l 17.75,0.27308 c 16.99231,0.26141 17.75,0.35844 17.75,2.27307 0,1.87766 -0.76076,2.01727 -12.43643,2.28228 -7.07411,0.16056 -13.00281,0.75233 -13.75,1.37244 -1.65096,1.37018 -1.73536,10.02349 -0.11357,11.64528 0.78561,0.78561 4.94031,1.2 12.03138,1.2 8.74594,0 10.94316,0.29126 11.41188,1.51273 C 390.98447,335.00788 388.18568,336 376.98454,336 365.02113,336 365,336.01234 365,343 c 0,7.04751 -0.0881,7 12.98454,7 12.24283,0 15.02935,0.91545 13.65872,4.48727 C 391.15782,355.7523 388.38321,356 374.69805,356 c -9.00059,0 -16.66472,-0.3 -17.03138,-0.66667 z m 60.04739,0.0474 C 417.32133,354.98799 417,346.47177 417,336.45578 c 0,-13.66223 -0.32263,-18.47865 -1.29169,-19.2829 -0.71043,-0.5896 -4.42293,-1.2072 -8.25,-1.37244 C 401.26681,315.53311 400.5,315.2796 400.5,313.5 c 0,-1.92706 0.75676,-2.00986 20.75,-2.27029 L 442,310.95942 v 2.52029 c 0,2.46598 -0.15899,2.52029 -7.37756,2.52029 -4.9033,0 -7.7462,0.44419 -8.47676,1.32446 -0.68746,0.82834 -1.20156,8.2264 -1.37244,19.75 L 424.5,355.5 l -3.03594,0.29739 c -1.66977,0.16357 -3.35727,-0.0239 -3.75,-0.41666 z m 125.25532,-0.91667 c -10.49905,-3.23651 -16.89478,-13.00268 -15.61145,-23.83841 0.86073,-7.26749 4.73287,-12.42179 12.09385,-16.09841 5.09076,-2.5427 7.35528,-3.02913 15.65347,-3.36243 11.34719,-0.45576 18.05513,1.28108 23.53709,6.09431 4.98323,4.37533 6.70169,8.28578 6.71831,15.28783 0.0362,15.27505 -10.49776,23.5493 -29.76958,23.3834 -4.45009,-0.0383 -10.12985,-0.69814 -12.62169,-1.46629 z m 23.1314,-4.60012 c 10.30862,-3.44528 15.01477,-15.80828 9.63277,-25.3052 -4.97048,-8.77077 -20.57831,-11.99642 -31.31422,-6.47168 -13.97112,7.18959 -13.63794,25.15986 0.58067,31.31864 4.17625,1.80893 16.2733,2.07164 21.10078,0.45824 z m 71.56589,5.46939 C 637.3,354.96667 637,344.84167 637,332.83333 V 311 h 3.89301 c 4.62305,0 5.10699,0.8606 5.10699,9.08179 0,4.7005 0.32166,5.91821 1.56332,5.91821 0.85983,0 5.10633,-3.375 9.43668,-7.5 6.28572,-5.98765 8.49107,-7.5 10.93668,-7.5 1.78555,0 3.0621,0.5214 3.06039,1.25 -0.002,0.6875 -3.8608,4.60596 -8.57597,8.70769 -8.93881,7.77587 -10.74,9.96461 -9.60132,11.66713 0.37412,0.55938 5.63022,5.44796 11.68022,10.86352 6.05,5.41555 11.15,10.22113 11.33333,10.67906 0.47326,1.1821 -8.58785,1.03881 -9.32098,-0.14741 -1.59834,-2.58617 -18.70024,-17.0219 -19.54627,-16.49903 -0.53134,0.32839 -0.96608,3.90871 -0.96608,7.95627 0,4.04756 -0.27314,8.071 -0.60699,8.94098 -0.6099,1.58938 -6.36987,2.2716 -7.72634,0.91512 z M 688,354.71023 c -3.03727,-1.53114 -4.27706,-6.42028 -1.338,-5.27639 9.22914,3.59198 19.42225,2.67012 21.52586,-1.9468 1.6262,-3.56913 -0.84116,-6.5994 -10.4711,-12.86001 C 687.29186,327.8496 684.6,324.95501 684.6,320.5224 684.6,314.04493 690.30197,311 702.43176,311 709.46379,311 713,312.14888 713,314.43353 c 0,1.0543 -1.89981,1.32955 -8.3846,1.21482 -6.97281,-0.12337 -8.7408,0.17241 -10.5,1.75664 -1.16347,1.04774 -2.1154,2.64697 -2.1154,3.55383 0,2.29418 5.20514,7.00253 13.70652,12.39835 12.26773,7.78633 13.85874,16.29953 3.92696,21.01247 -4.1797,1.98339 -17.94481,2.2001 -21.63348,0.34059 z M 301.23032,333.31483 301.5,311.5 l 3.7874,-0.3126 c 4.37091,-0.36075 3.64406,-1.00542 22.06696,19.57194 9.98577,11.15354 13.82576,14.52283 14.8055,12.99066 0.0879,-0.1375 0.42543,-7.44498 0.75,-16.23883 0.54489,-14.76278 0.73844,-16.0172 2.52404,-16.35875 3.96037,-0.75751 4.5661,2.15526 4.5661,21.95692 0,10.2999 -0.27314,19.43889 -0.60699,20.30887 -0.40792,1.06303 -1.86847,1.58179 -4.45343,1.58179 -3.68844,0 -4.45095,-0.65722 -18.56344,-16 -8.09435,-8.8 -15.09031,-16 -15.54657,-16 -0.45626,0 -1.16707,-0.1125 -1.57957,-0.25 -0.4125,-0.1375 -0.975,6.95 -1.25,15.75 l -0.5,16 -3.26968,0.31483 -3.26969,0.31482 z M 468.27378,353.75 c -0.53411,-0.6875 -2.37268,-4.625 -4.0857,-8.75 -1.71302,-4.125 -5.57723,-13.10222 -8.58713,-19.94937 -3.0099,-6.84715 -5.24988,-12.80965 -4.97773,-13.25 0.27215,-0.44035 1.84122,-0.80063 3.48682,-0.80063 2.51726,0 3.23613,0.59502 4.53049,3.75 C 468.95115,339.88193 471.3807,345 473.00021,345 474.99651,345 484,330.2622 484,326.99446 c 0,-1.12832 -1.35,-4.72583 -3,-7.99446 -3.77498,-7.47819 -3.75868,-8.20157 0.17604,-7.81336 2.30596,0.22751 3.64279,1.13522 4.87977,3.31336 1.73341,3.05226 3.8232,3.44032 5.21625,0.96861 1.56237,-2.77211 3.9315,-4.46861 6.24035,-4.46861 1.30326,0 2.57307,0.3375 2.8218,0.75 0.24873,0.4125 -1.48786,4.05106 -3.8591,8.08568 -4.84327,8.24075 -4.8654,7.71425 0.80558,19.16432 1.77062,3.575 3.82738,6.5 4.57058,6.5 0.7432,0 5.2432,-7.65 10,-17 8.32585,-16.36535 8.77006,-17.0117 11.89873,-17.31336 1.91704,-0.18484 3.25,0.14558 3.25,0.8056 0,1.23188 -16.72862,34.56548 -19.95261,39.75776 -1.65826,2.67064 -2.64655,3.25 -5.544,3.25 -3.44308,0 -3.62569,-0.20579 -7.7647,-8.75 -2.53219,-5.22725 -4.84259,-8.75 -5.73869,-8.75 -0.84049,0 -3.68454,3.84713 -6.46855,8.75 -4.82687,8.50049 -5.07289,8.75 -8.62756,8.75 -2.01245,0 -4.096,-0.5625 -4.63011,-1.25 z m 125.39289,0.58333 c -0.83317,-0.83316 -0.88857,-39.5915 -0.0597,-41.75154 C 594.11255,311.26432 596.16593,311 605.8951,311 c 10.12505,0 12.2755,0.29973 16.14301,2.25 10.38158,5.23513 8.42256,16.80262 -3.51271,20.74162 -1.93897,0.63991 -3.5254,1.78744 -3.5254,2.55006 0,0.76262 3.15,4.8889 7,9.1695 3.85,4.28061 7,8.12176 7,8.53588 0,0.41411 -1.78979,0.75294 -3.97732,0.75294 -3.82789,0 -4.3063,-0.39447 -12.7343,-10.5 -4.81634,-5.775 -9.27776,-10.5 -9.91427,-10.5 -1.65914,0 -2.51819,4.33908 -2.35983,11.91951 0.0756,3.61927 0.10333,7.14299 0.0616,7.83049 -0.0785,1.29336 -5.2303,1.76225 -6.40921,0.58333 z m 23.26181,-24.79634 c 5.01423,-2.59296 5.77157,-9.37697 1.36885,-12.26174 -2.74332,-1.7975 -15.2986,-2.59925 -16.82873,-1.07465 -1.27754,1.27293 -1.66178,9.25001 -0.5804,12.0494 0.99725,2.5816 1.43427,2.75 7.13671,2.75 3.37537,0 7.33149,-0.65006 8.90357,-1.46301 z M 301,233.03383 V 173 h 59.7899 c 64.99672,0 65.70445,0.0525 76.99069,5.71066 6.40133,3.20919 13.51869,10.58346 16.4371,17.03039 3.34175,7.3821 3.17518,21.80344 -0.33871,29.32553 -4.50373,9.64102 -13.24608,16.22724 -25.96561,19.56169 -5.41163,1.41867 -14.06693,1.77425 -55.41337,2.2765 l -49,0.59523 -0.5,22.5 -0.5,22.5 -10.75,0.28383 -10.75,0.28383 z m 121.73727,-5.38732 c 4.75244,-2.07883 9.91091,-7.39655 10.86584,-11.20129 0.3476,-1.38496 0.44107,-5.15771 0.20771,-8.38389 -0.7523,-10.40047 -7.37394,-15.99624 -21.31222,-18.01038 -10.42493,-1.50645 -86.77198,-1.37757 -88.2986,0.14905 -1.33,1.33 -1.77796,37.8887 -0.48016,39.18651 0.39591,0.39591 21.88341,0.58341 47.75,0.41666 43.20375,-0.2785 47.37491,-0.45397 51.26743,-2.15666 z m 62.73534,64.13867 C 485.20221,291.07833 485.09776,264.175 485.24049,232 L 485.5,173.5 h 10.5 10.5 l 0.5,24 0.5,24 h 56 56 l 0.5,-24 0.5,-24 H 631 641.5 V 233 292.5 H 631 620.5 L 620,266 619.5,239.5 h -56 -56 l -0.5,26.5 -0.5,26.5 -10.26788,0.28518 c -7.65459,0.2126 -10.39301,-0.0419 -10.75951,-1 z m 205,0 C 690.20221,291.07833 690.09776,264.175 690.24049,232 L 690.5,173.5 h 10.5 10.5 v 59.5 59.5 l -10.26788,0.28518 c -7.65459,0.2126 -10.39301,-0.0419 -10.75951,-1 z"
       style="fill:#302d2c" />
  </g>
</svg>
